# Low Poly Tank
v -1.5 0 -2.0
v 1.5 0 -2.0
v -1.5 0 2.0
v 1.5 0 2.0
v -1.5 1.0 -2.0
v 1.5 1.0 -2.0
v -1.5 1.0 2.0
v 1.5 1.0 2.0
# Base faces
f 1 2 4 3
f 5 7 8 6
f 1 3 7 5
f 2 6 8 4
f 3 4 8 7
f 1 5 6 2

# Turret
v -0.8 1.0 -0.8
v 0.8 1.0 -0.8
v -0.8 1.0 0.8
v 0.8 1.0 0.8
v -0.8 1.8 -0.8
v 0.8 1.8 -0.8
v -0.8 1.8 0.8
v 0.8 1.8 0.8
# Turret faces
f 9 11 12 10
f 13 14 16 15
f 9 10 14 13
f 11 15 16 12
f 10 12 16 14
f 9 13 15 11

# Barrel
v -0.2 1.2 0.8
v 0.2 1.2 0.8
v -0.2 1.6 0.8
v 0.2 1.6 0.8
v -0.2 1.2 3.0
v 0.2 1.2 3.0
v -0.2 1.6 3.0
v 0.2 1.6 3.0
# Barrel faces
f 17 18 20 19
f 21 23 24 22
f 17 19 23 21
f 18 22 24 20
f 19 20 24 23
f 17 21 22 18
